<?xml version="1.0" encoding="UTF-8" standalone="no"?>
<!-- Created with Inkscape (http://www.inkscape.org/) -->

<svg
   xmlns:dc="http://purl.org/dc/elements/1.1/"
   xmlns:cc="http://creativecommons.org/ns#"
   xmlns:rdf="http://www.w3.org/1999/02/22-rdf-syntax-ns#"
   xmlns:svg="http://www.w3.org/2000/svg"
   xmlns="http://www.w3.org/2000/svg"
   xmlns:sodipodi="http://sodipodi.sourceforge.net/DTD/sodipodi-0.dtd"
   xmlns:inkscape="http://www.inkscape.org/namespaces/inkscape"
   width="12.15807mm"
   height="12.158063mm"
   viewBox="0 0 12.15807 12.158063"
   version="1.1"
   id="svg1876"
   inkscape:version="0.92.5 (2060ec1f9f, 2020-04-08)"
   sodipodi:docname="fabric_2_single.svg">
  <defs
     id="defs1870" />
  <sodipodi:namedview
     id="base"
     pagecolor="#ffffff"
     bordercolor="#666666"
     borderopacity="1.0"
     inkscape:pageopacity="0.0"
     inkscape:pageshadow="2"
     inkscape:zoom="11.2"
     inkscape:cx="46.189182"
     inkscape:cy="14.162767"
     inkscape:document-units="mm"
     inkscape:current-layer="layer1"
     showgrid="false"
     fit-margin-top="0"
     fit-margin-left="0"
     fit-margin-right="0"
     fit-margin-bottom="0"
     inkscape:window-width="1848"
     inkscape:window-height="1016"
     inkscape:window-x="72"
     inkscape:window-y="27"
     inkscape:window-maximized="1"
     inkscape:object-paths="true" />
  <metadata
     id="metadata1873">
    <rdf:RDF>
      <cc:Work
         rdf:about="">
        <dc:format>image/svg+xml</dc:format>
        <dc:type
           rdf:resource="http://purl.org/dc/dcmitype/StillImage" />
        <dc:title></dc:title>
      </cc:Work>
    </rdf:RDF>
  </metadata>
  <g
     inkscape:label="Layer 1"
     inkscape:groupmode="layer"
     id="layer1"
     transform="translate(-69.696538,-137.46263)">
    <path
       style="fill:none;stroke:#ff0000;stroke-width:0.26458332px;stroke-linecap:butt;stroke-linejoin:miter;stroke-opacity:1"
       d="m 78.648717,140.40124 c 0.0026,-0.65661 -0.09015,-1.49061 0.50113,-2.00452 0.573812,-0.60428 1.646628,-0.69471 2.15486,-0.0835 0.696809,0.77237 0.689384,4.04619 -0.267269,4.67722 -1.183041,0.69207 -0.448106,0.57431 -4.179257,0.55194 -0.79679,-0.0179 -1.061005,-0.38682 -1.069457,-1.07052"
       id="path1445-90-9"
       inkscape:connector-curvature="0"
       sodipodi:nodetypes="cccccc" />
    <path
       style="fill:none;stroke:#ff0000;stroke-width:0.26458332px;stroke-linecap:butt;stroke-linejoin:miter;stroke-opacity:1"
       d="m 72.63513,140.66853 c -0.65661,-0.003 -1.49061,0.0901 -2.00452,-0.50113 -0.60428,-0.57381 -0.69471,-1.64663 -0.0835,-2.15486 0.77237,-0.69681 4.04619,-0.68938 4.67722,0.26727 0.69207,1.18304 0.586764,0.4609 0.564394,4.19205 -0.0179,0.79679 -0.38682,1.061 -1.07052,1.06945"
       id="path1445-90-9-9"
       inkscape:connector-curvature="0"
       sodipodi:nodetypes="cccccc" />
    <path
       style="fill:none;stroke:#ff0000;stroke-width:0.26458332px;stroke-linecap:butt;stroke-linejoin:miter;stroke-opacity:1"
       d="m 72.90242,146.68212 c -0.003,0.65661 0.0902,1.49061 -0.50113,2.00452 -0.57381,0.60428 -1.64663,0.69471 -2.15486,0.0835 -0.69681,-0.77237 -0.68938,-4.04619 0.26727,-4.67722 1.18304,-0.69207 0.473354,-0.57398 4.204504,-0.55161 0.79679,0.0179 1.061,0.38682 1.06945,1.07052"
       id="path1445-90-9-0"
       inkscape:connector-curvature="0"
       sodipodi:nodetypes="cccccc" />
    <path
       style="fill:none;stroke:#ff0000;stroke-width:0.26458332px;stroke-linecap:butt;stroke-linejoin:miter;stroke-opacity:1"
       d="m 78.91601,146.41483 c 0.65661,0.003 1.49061,-0.0901 2.00452,0.50113 0.60428,0.57381 0.69471,1.64663 0.0835,2.15486 -0.77237,0.69681 -4.04619,0.68938 -4.67722,-0.26727 -0.69207,-1.18304 -0.561519,-0.46057 -0.539149,-4.19172 0.0179,-0.79679 0.38682,-1.061 1.07052,-1.06945"
       id="path1445-90-9-8"
       inkscape:connector-curvature="0"
       sodipodi:nodetypes="cccccc" />
  </g>
</svg>
